<svg width="999" height="999" viewBox="0 0 999 999" fill="none" xmlns="http://www.w3.org/2000/svg">
<path d="M498.661 109.436C490.338 111.666 481.493 125.454 475.155 131.373C449.137 155.669 426.854 186.708 409.171 218.39C336.215 349.102 326.132 520.478 382.207 660.585C401.981 709.995 428.784 755.128 464.242 793.244C472.451 802.069 480.386 811.321 489.426 819.178C492.444 821.801 496.945 826.071 501.179 825.174C511.958 822.89 525.515 804.428 532.481 795.951C553.926 769.856 574.679 745.838 591.339 715.634C664.058 583.789 672.171 412.874 616.189 272.537C596.56 223.328 569.045 180.344 533.92 142.585C525.631 133.675 517.608 124.272 508.735 116.032C506.223 113.7 502.446 108.422 498.661 109.436ZM410.514 810.39C407.176 799.131 397.549 789.115 391.108 779.707C380.492 764.199 370.704 747.855 362.08 730.976C332.876 673.818 311.827 610.641 303.298 545.976C296.418 493.81 296.665 439.246 304.146 387.146C306.796 368.701 310.309 350.346 313.984 332.098C315.061 326.748 319.647 317.024 317.629 311.683C315.055 304.867 299.545 299.279 293.824 295.642C267.434 278.867 237.576 268.14 208.195 259.401C200.439 257.094 192.5 255.833 184.689 253.818C181.54 253.006 176.92 251.044 173.956 253.263C170.679 255.715 169.56 261.489 168.323 265.317C165.166 275.092 161.789 284.989 159.678 295.098C151.264 335.393 146.469 378.302 150.127 419.634C152.282 443.977 154.034 467.81 159.084 491.829C180.301 592.741 234.786 684.096 309.774 748.483C331.351 767.009 354.765 782.905 379.452 796.174C388.925 801.266 399.814 809.238 410.514 810.39Z" fill="#2C9678"/>
<path d="M588.486 810.39C601.185 807.566 613.188 799.944 624.585 793.512C647.781 780.42 669.562 766.115 690.065 748.483C782.511 668.978 837.235 552.099 849.712 426.854C854.086 382.869 848.587 337.86 839.504 295.098C837.295 284.7 833.979 274.512 830.802 264.415C829.612 260.633 827.926 255.088 824.229 253.353C816.519 249.735 803.574 256.17 795.842 257.921C766.468 264.573 737.775 277.768 711.053 292.167C703.515 296.229 685.254 303.542 681.837 312.28C679.975 317.039 683.798 325.511 684.831 330.293C687.92 344.594 691.36 359.044 693.187 373.61C699.399 423.163 704.776 476.088 699.06 526.122C691.092 595.861 670.571 665.628 639.436 727.366C630.431 745.222 619.923 762.455 608.732 778.805C602.032 788.591 592.511 798.975 588.486 810.39Z" fill="#2C9678"/>
<path d="M399.6 863.634C393.741 857.323 382.769 854.431 375.254 850.721C358.967 842.682 342.647 834.035 327.403 823.869C282.622 794.005 243.091 756.461 209.399 712.927C182.265 677.864 158.613 637.569 141.875 595.61C135.826 580.444 130.094 565.143 124.965 549.585C122.79 542.988 120.449 532.778 114.922 528.458C108.306 523.287 94.0182 526.303 86.4678 527.408C65.2892 530.507 44.8636 533.679 24.3451 540.455C18.0748 542.527 6.94035 544.523 2.18523 549.58C-0.146223 552.059 0.827293 557.352 1.39756 560.415C3.03494 569.208 4.8139 577.909 6.93849 586.585C16.1741 624.299 31.8881 658.919 52.0491 691.268C105.368 776.822 196.881 841.306 291.305 859.607C327.861 866.692 362.936 863.639 399.6 863.634Z" fill="#2C9678"/>
<path d="M600.239 862.732V863.634C636.265 864.434 671.033 866.813 706.855 859.609C805.2 839.834 895.196 775.178 950.586 685.854C974.688 646.988 998.16 595.47 998.16 547.78C970.465 540.892 944.122 532.942 915.89 528.449C907.965 527.189 890.445 522.752 883.258 527.186C879.145 529.726 878.591 537.086 877.08 541.463C872.84 553.797 868.844 566.249 864.303 578.463C849.586 618.02 830.191 654.972 806.969 689.463C770.989 742.903 724.741 788.747 672.436 823.195C649.368 838.388 622.906 847.353 600.239 862.732Z" fill="#2C9678"/>
</svg>
