<svg width="135" height="167" viewBox="0 0 135 167" fill="none" xmlns="http://www.w3.org/2000/svg">
<path d="M69.8442 0.036019C46.1358 0.908218 25.0462 8.71713 11.2006 29.7141C0.00262592 46.6968 -0.326962 63.6301 0.111496 83.2046C0.368831 94.7011 -1.05938 105.159 2.10485 116.51C10.7236 147.437 39.3827 168.335 70.834 166.934C98.5113 165.699 124.66 145.917 132.529 118.529C136.133 105.987 134.368 95.7103 134.628 83.2046C134.857 72.234 135.897 61.6994 133.031 50.9085C125.558 22.7726 99.4922 -1.05458 69.8442 0.036019Z" fill="#349B7D"/>
<path d="M127 109.28C122.152 112.058 119.094 117.27 114.81 120.867C105.877 128.369 95.7692 133.785 84.3378 136.636C76.1344 138.682 65.1763 139.339 56.912 137.248C5.59852 124.267 18.8665 43.1889 72.1486 51.2826C83.6684 53.0326 91.1302 58.6376 100.59 64.7131C103.871 44.7543 77.5575 33.4418 60.9751 35.1738C34.1314 37.9774 9.24614 60.6843 7.23086 87.4918C6.33393 99.4268 7.97338 111.369 13.5083 122.155C38.8436 171.527 112.604 160.598 127 109.28Z" fill="#F9FDFB"/>
<path d="M9 54.0858C22.0903 44.5711 30.8306 33.4251 47.3347 28.7403C69.3983 22.4778 93.9214 27.7767 105.519 49.1045C119.438 74.7053 103.133 112.404 71.5461 113.822C54.5336 114.585 47.4467 106.431 33.2114 99.9136C37.3193 127.487 65.9633 135.734 89.7046 126.188C111.383 117.472 132 99.9136 127.934 72.0184C131.01 3.53852 24.9493 -13.9651 9 54.0858Z" fill="#F9FDFB"/>
<path d="M60.104 62.5848C56.545 63.2558 53.18 64.6898 50.104 66.5848C22.731 83.4528 51.866 106.69 74.104 102.652C82.664 101.098 100.016 90.9088 97.55 80.1178C94.118 65.1018 72.919 60.1668 60.104 62.5848Z" fill="#F9FDFB"/>
</svg>
