<svg width="64" height="30" viewBox="0 0 64 30" fill="none" xmlns="http://www.w3.org/2000/svg">
<g filter="url(#filter0_d_8_3)">
<path d="M47.3146 5.9104L31.5981 0.673401L15.9064 5.9131C7.27191 8.7802 0.195323 11.1557 0.178751 11.1722C0.159416 11.1916 7.22496 13.567 15.8677 16.4479L31.6008 21.6905L47.3119 16.4535C55.9601 13.5725 63.0284 11.2054 63.0284 11.1833C63.0284 11.1612 55.9601 8.794 47.3146 5.9104ZM28.3194 11.1833L28.3167 17.8428L18.3012 14.5061L8.27733 11.1667L18.2874 7.8301C23.7923 5.9988 28.2973 4.4989 28.3084 4.51C28.3139 4.5155 28.3194 7.5207 28.3194 11.1833Z" fill="#2C9678"/>
</g>
<defs>
<filter id="filter0_d_8_3" x="-3.82129" y="0.673401" width="70.8496" height="29.0171" filterUnits="userSpaceOnUse" color-interpolation-filters="sRGB">
<feFlood flood-opacity="0" result="BackgroundImageFix"/>
<feColorMatrix in="SourceAlpha" type="matrix" values="0 0 0 0 0 0 0 0 0 0 0 0 0 0 0 0 0 0 127 0" result="hardAlpha"/>
<feOffset dy="4"/>
<feGaussianBlur stdDeviation="2"/>
<feComposite in2="hardAlpha" operator="out"/>
<feColorMatrix type="matrix" values="0 0 0 0 0.172549 0 0 0 0 0.588235 0 0 0 0 0.470588 0 0 0 0.25 0"/>
<feBlend mode="normal" in2="BackgroundImageFix" result="effect1_dropShadow_8_3"/>
<feBlend mode="normal" in="SourceGraphic" in2="effect1_dropShadow_8_3" result="shape"/>
</filter>
</defs>
</svg>
