<svg width="1190" height="1107">
<path style="fill:#2c9678; stroke:none;" d="M594 121.267C584.086 123.738 573.55 139.017 566 145.576C535.008 172.498 508.464 206.893 487.4 242C400.496 386.843 388.485 576.746 455.281 732C478.836 786.751 510.763 836.763 553 879C562.779 888.779 572.231 899.031 583 907.738C586.594 910.644 591.956 915.376 597 914.382C609.84 911.851 625.988 891.393 634.286 882C659.831 853.084 684.552 826.469 704.397 793C791.02 646.901 800.684 457.509 733.999 302C710.616 247.472 677.841 199.841 636 158C626.126 148.126 616.57 137.707 606 128.576C603.008 125.992 598.509 120.143 594 121.267M489 898C485.024 885.523 473.556 874.425 465.884 864C453.238 846.815 441.579 828.704 431.306 810C396.518 746.663 371.445 676.656 361.285 605C353.09 547.195 353.384 486.732 362.296 429C365.452 408.561 369.637 388.221 374.015 368C375.298 362.072 380.76 351.297 378.357 345.379C375.29 337.826 356.815 331.633 350 327.603C318.564 309.015 282.998 297.128 248 287.444C238.761 284.888 229.304 283.491 220 281.258C216.248 280.358 210.745 278.184 207.214 280.643C203.311 283.36 201.978 289.758 200.505 294C196.744 304.832 192.721 315.799 190.207 327C180.184 371.652 174.472 419.199 178.83 465C181.397 491.974 183.484 518.384 189.499 545C214.772 656.821 279.674 758.052 369 829.4C394.702 849.929 422.592 867.543 452 882.247C463.284 887.889 476.255 896.723 489 898z"/>
<path style="fill:#2c9678; stroke:none;" d="M701 898C716.126 894.87 730.425 886.424 744 879.297C771.631 864.79 797.577 848.938 822 829.4C932.121 741.3 997.307 611.785 1012.17 473C1017.38 424.26 1010.83 374.385 1000.01 327C997.379 315.478 993.429 304.189 989.644 293C988.227 288.81 986.219 282.665 981.815 280.742C972.63 276.733 957.211 283.864 948 285.804C913.01 293.175 878.831 307.797 847 323.753C838.021 328.254 816.269 336.357 812.198 346.04C809.981 351.314 814.534 360.701 815.765 366C819.445 381.847 823.542 397.86 825.718 414C833.118 468.91 839.523 527.557 832.714 583C823.223 660.278 798.779 737.588 761.691 806C750.964 825.787 738.447 844.883 725.116 863C717.136 873.844 705.794 885.351 701 898z"/>
<path style="fill:#2c9678; stroke:none;" d="M476 957C469.021 950.006 455.952 946.802 447 942.691C427.599 933.783 408.159 924.201 390 912.936C336.657 879.843 289.568 838.241 249.435 790C217.113 751.147 188.939 706.495 169.001 660C161.795 643.195 154.967 626.239 148.858 609C146.267 601.689 143.478 590.376 136.895 585.589C129.014 579.858 111.994 583.201 103 584.425C77.7723 587.859 53.4415 591.374 29 598.883C21.5309 601.178 8.26765 603.39 2.60339 608.994C-0.173816 611.741 0.985827 617.606 1.66512 621C3.61556 630.744 5.73464 640.386 8.26543 650C19.2668 691.791 37.9852 730.153 62.0008 766C125.514 860.803 234.523 932.258 347 952.537C390.546 960.388 432.326 957.005 476 957z"/>
<path style="fill:#2c9678; stroke:none;" d="M715 956L715 957C757.913 957.886 799.329 960.522 842 952.54C959.148 930.627 1066.35 858.981 1132.33 760C1161.04 716.933 1189 659.845 1189 607C1156.01 599.367 1124.63 590.557 1091 585.579C1081.56 584.182 1060.69 579.266 1052.13 584.179C1047.23 586.994 1046.57 595.149 1044.77 600C1039.72 613.667 1034.96 627.465 1029.55 641C1012.02 684.833 988.917 725.78 961.255 764C918.396 823.217 863.305 874.017 801 912.189C773.522 929.024 742 938.959 715 956z"/>
</svg>
