<?xml version="1.0" standalone="no"?>
<!DOCTYPE svg PUBLIC "-//W3C//DTD SVG 20010904//EN"
 "http://www.w3.org/TR/2001/REC-SVG-20010904/DTD/svg10.dtd">
<svg version="1.0" xmlns="http://www.w3.org/2000/svg"
 width="853.000000pt" height="853.000000pt" viewBox="0 0 853.000000 853.000000"
 preserveAspectRatio="xMidYMid meet">
<g transform="translate(0.000000,853.000000) scale(0.100000,-0.100000)"
fill="#000000" stroke="none">
<path d="M3895 8365 c-231 -37 -387 -86 -601 -189 -403 -195 -725 -514 -950
-941 -155 -295 -221 -666 -196 -1100 23 -384 74 -575 247 -930 95 -193 205
-379 443 -745 91 -140 202 -313 247 -385 379 -600 575 -1144 575 -1594 0 -183
-29 -278 -143 -476 -224 -388 -670 -734 -1052 -817 -87 -19 -132 -22 -340 -23
-265 0 -339 9 -470 57 -322 118 -630 385 -777 674 -160 315 -157 758 9 1089
62 123 113 195 207 292 133 139 277 212 467 236 109 14 224 0 342 -41 107 -36
183 -87 279 -184 102 -103 151 -199 156 -304 5 -100 -9 -134 -90 -220 l-70
-73 -151 6 c-84 3 -178 3 -210 -1 -53 -7 -62 -12 -121 -69 -74 -72 -96 -125
-96 -237 0 -218 260 -398 543 -377 215 17 376 95 550 266 166 163 245 309 282
525 58 341 -43 646 -311 935 -211 228 -541 393 -884 442 -112 16 -340 6 -440
-20 -285 -73 -619 -284 -795 -502 -228 -282 -366 -596 -421 -961 -20 -128 -22
-400 -5 -528 82 -619 491 -1164 1102 -1471 396 -198 887 -259 1340 -165 503
105 993 429 1336 884 160 211 354 548 568 983 133 272 234 454 388 696 135
214 167 260 277 397 175 217 372 392 578 513 203 119 356 144 637 104 602 -87
962 -284 1247 -683 143 -200 219 -444 235 -754 7 -145 -22 -348 -70 -484 -108
-310 -322 -557 -604 -699 -188 -94 -324 -130 -524 -138 -297 -12 -496 50 -662
206 -170 159 -257 376 -244 606 8 156 55 281 142 383 75 87 196 119 345 93
l69 -13 53 -121 c71 -162 106 -209 188 -250 52 -26 79 -33 143 -36 109 -5 149
13 231 99 73 78 96 133 96 231 0 189 -75 347 -241 504 -122 115 -232 177 -404
227 -69 20 -102 23 -235 23 -170 -1 -236 -13 -367 -65 -106 -43 -205 -110
-307 -209 -168 -163 -264 -329 -332 -573 -23 -82 -27 -117 -31 -292 -4 -128
-1 -225 6 -275 71 -456 357 -844 764 -1036 245 -116 483 -162 781 -152 370 12
691 112 1008 314 434 275 754 772 817 1268 18 139 23 403 12 555 -20 265 -54
406 -152 629 -112 255 -249 450 -458 653 -203 197 -389 322 -647 436 -236 104
-398 148 -651 179 -165 20 -822 22 -1143 3 -670 -39 -1132 -17 -1479 70 -397
99 -660 228 -779 382 -212 276 -376 756 -375 1098 1 274 86 564 228 781 172
263 424 470 702 575 235 88 560 105 788 39 47 -14 131 -48 187 -76 279 -140
450 -312 593 -594 80 -158 105 -252 105 -399 0 -255 -104 -443 -343 -620 -108
-80 -304 -143 -408 -132 -147 15 -281 114 -323 239 -28 82 -23 100 59 222 93
138 118 194 118 260 -2 189 -206 357 -388 316 -101 -23 -266 -164 -344 -294
-84 -143 -115 -273 -108 -456 6 -156 30 -253 94 -381 131 -259 353 -436 653
-523 108 -31 372 -31 510 0 431 97 814 394 1004 778 91 184 126 339 126 559 0
153 -9 234 -40 369 -99 425 -383 829 -775 1102 -178 124 -481 251 -710 297
-134 27 -478 34 -610 13z m538 -4033 c107 -53 183 -130 235 -239 37 -78 37
-79 37 -208 0 -129 0 -130 -37 -208 -53 -110 -129 -187 -238 -240 l-85 -42
-130 0 -130 0 -85 42 c-109 53 -185 130 -238 240 -37 78 -37 79 -37 208 0 129
0 130 37 208 48 100 126 183 217 231 93 49 128 56 258 52 109 -2 114 -3 196
-44z"/>
</g>
</svg>
